HIERARCHY
ROOT Hips
{
	OFFSET	0.00	0.00	0.00
	CHANNELS 6 Xposition Yposition Zposition Zrotation Xrotation Yrotation
	JOINT LeftHip
	{
		OFFSET	 3.430000	 0.000000	 0.000000
		CHANNELS 3 Zrotation Xrotation Yrotation
		JOINT LeftKnee
		{
			OFFSET	 0.000000	-18.469999	 0.000000
			CHANNELS 3 Zrotation Xrotation Yrotation
			JOINT LeftAnkle
			{
				OFFSET	 0.000000	-17.950001	 0.000000
				CHANNELS 3 Zrotation Xrotation Yrotation
				End Site 
				{
					OFFSET	 0.000000	-3.119996	 0.000000
				}
			}
		}
	}
	JOINT RightHip
	{
		OFFSET	-3.430000	 0.000000	 0.000000
		CHANNELS 3 Zrotation Xrotation Yrotation
		JOINT RightKnee
		{
			OFFSET	 0.000000	-18.809999	 0.000000
			CHANNELS 3 Zrotation Xrotation Yrotation
			JOINT RightAnkle
			{
				OFFSET	 0.000000	-17.570000	 0.000000
				CHANNELS 3 Zrotation Xrotation Yrotation
				End Site 
				{
					OFFSET	 0.000000	-3.250000	 0.000000
				}
			}
		}
	}
	JOINT Chest
	{
		OFFSET	 0.000000	 4.570000	 0.000000
		CHANNELS 3 Zrotation Xrotation Yrotation
		JOINT LeftCollar
		{
			OFFSET	 1.060000	 15.330000	 1.760000
			CHANNELS 3 Zrotation Xrotation Yrotation
			JOINT LeftShoulder
			{
				OFFSET	 5.810000	 0.000000	 0.000000
				CHANNELS 3 Zrotation Xrotation Yrotation
				JOINT LeftElbow
				{
					OFFSET	 0.000000	-12.080000	 0.000000
					CHANNELS 3 Zrotation Xrotation Yrotation
					JOINT LeftWrist
					{
						OFFSET	 0.000000	-9.820000	 0.000000
						CHANNELS 3 Zrotation Xrotation Yrotation
						End Site 
						{
							OFFSET	 0.000000	-7.369996	 0.000000
						}
					}
				}
			}
		}
		JOINT RightCollar
		{
			OFFSET	-1.060000	 15.330000	 1.760000
			CHANNELS 3 Zrotation Xrotation Yrotation
			JOINT RightShoulder
			{
				OFFSET	-6.060000	 0.000000	 0.000000
				CHANNELS 3 Zrotation Xrotation Yrotation
				JOINT RightElbow
				{
					OFFSET	 0.000000	-11.900000	 0.000000
					CHANNELS 3 Zrotation Xrotation Yrotation
					JOINT RightWrist
					{
						OFFSET	 0.000000	-9.520000	 0.000000
						CHANNELS 3 Zrotation Xrotation Yrotation
						End Site 
						{
							OFFSET	 0.000000	-7.140012	 0.000000
						}
					}
				}
			}
		}
		JOINT Neck
		{
			OFFSET	 0.000000	 17.620001	 0.000000
			CHANNELS 3 Zrotation Xrotation Yrotation
			JOINT Head
			{
				OFFSET	 0.000000	 5.190000	 0.000000
				CHANNELS 3 Zrotation Xrotation Yrotation
				End Site 
				{
					OFFSET	 0.000000	 4.140008	 0.000000
				}
			}
		}
	}
}

MOTION
Frames: 14
Frame Time: 0.033333
10.3111 -38.6568 -41.4856 -116.122 -8.34981 -69.3392 32.2329 -58.8865 33.9647 -4.75867 31.4858 4.49744 -13.9637 -8.70621 -8.53567 -64.8044 -27.6735 -57.7348 9.94746 31.6055 -1.57882 27.3443 0.0012813 9.731 12.4781 23.4158 -8.91025 0 0 0 117.989 -27.2108 134.747 -15.4137 -5.26819 -23.3142 14.7196 -17.0271 -28.9691 0 0 0 -121.035 14.8342 -68.709 16.6589 -21.6741 23.2003 -26.0625 -30.3684 44.4733 0 0 0 6.69439 26.5014 -19.7541 
10.3388 -38.697 -41.4907 -114.213 -8.73412 -69.0974 31.2662 -59.2725 32.4822 -4.49479 32.3274 4.29189 -13.3815 -8.75303 -8.67378 -65.4492 -27.3269 -58.9903 10.3351 32.3022 -1.74609 27.2043 0.119819 9.81952 11.52 22.0206 -8.63988 0 0 0 117.648 -27.9535 132.251 -14.3614 -5.15718 -23.9283 16.4757 -16.7861 -26.523 0 0 0 -123.508 16.1498 -67.5586 16.5878 -20.1685 22.4133 -28.8694 -31.4678 43.4987 0 0 0 7.72417 26.5934 -20.966 
10.3563 -38.7522 -41.4806 -112.249 -8.86785 -69.2374 30.7327 -58.7237 30.9194 -4.04258 33.4369 4.06422 -12.8814 -9.10453 -8.46066 -65.2498 -27.0637 -59.3977 10.7244 33.1994 -1.79102 26.8733 -0.190298 9.42185 10.5352 20.5937 -7.90635 0 0 0 116.532 -29.0567 128.609 -12.9906 -5.14939 -24.8708 19.1342 -16.9788 -24.7576 0 0 0 -125.623 17.8359 -66.0763 16.773 -18.9079 21.624 -31.6207 -32.6482 43.0729 0 0 0 8.96342 26.927 -22.5699 
10.3086 -38.8426 -41.4656 -110.468 -8.92142 -69.7018 30.4351 -57.4286 29.4636 -3.60629 34.643 3.85698 -12.1376 -9.11421 -7.90219 -64.1507 -26.4735 -58.8494 11.0473 33.9656 -1.91204 26.5698 -0.409539 9.04903 9.56904 19.238 -6.96946 0 0 0 115.212 -29.734 124.9 -11.7074 -5.30114 -25.4675 21.8615 -17.3013 -23.4766 0 0 0 -126.557 19.6181 -64.0726 17.0044 -18.0664 20.2516 -33.2711 -33.5788 42.0849 0 0 0 10.2331 27.2193 -24.4265 
10.3111 -38.8276 -41.4957 -108.666 -8.83701 -70.2465 30.0973 -55.5412 27.6636 -3.38482 35.7883 3.90052 -11.3887 -9.20654 -6.8612 -62.5583 -25.7699 -57.7739 11.4176 34.8625 -2.09418 26.3537 -0.761861 8.87889 8.70006 17.7638 -6.06686 0 0 0 113.646 -30.0412 120.873 -10.5228 -5.48938 -25.8528 24.5777 -17.7752 -21.9915 0 0 0 -126.5 19.4793 -61.5826 16.0849 -17.5998 18.5927 -32.8454 -33.4525 40.733 0 0 0 11.3911 27.8999 -26.1216 
10.276 -38.8954 -41.4781 -106.924 -8.72265 -71.0715 30.0669 -53.2467 26.2219 -3.24303 37.2361 3.989 -10.5855 -9.16761 -5.54049 -60.5441 -24.7185 -56.0275 11.767 35.7826 -2.21568 26.2577 -1.32398 8.81547 7.87977 16.3373 -5.00852 0 0 0 112.256 -30.1122 117.549 -9.7359 -5.75929 -25.4657 26.9494 -18.2646 -20.9958 0 0 0 -126.194 19.8841 -58.3684 15.4831 -17.3282 16.5149 -32.5962 -32.9341 38.7005 0 0 0 12.3781 28.5388 -27.7436 
10.281 -38.8904 -41.5007 -105.036 -8.62774 -71.8562 29.8468 -50.4004 24.6407 -3.34627 38.4235 4.3256 -9.81736 -8.87802 -4.0416 -58.4236 -23.4396 -54.1054 12.2124 36.2845 -2.49107 26.038 -1.52589 8.73682 7.07829 14.7842 -4.04999 0 0 0 110.984 -30.0116 114.171 -9.2 -6.24896 -25.0009 28.9303 -19.1744 -19.8755 0 0 0 -125.193 19.0067 -55.0989 14.2941 -16.9243 14.7041 -32.1752 -32.2156 36.6639 0 0 0 13.0688 29.5623 -28.6799 
10.281 -38.8854 -41.5158 -103.051 -8.50842 -72.8172 29.9108 -47.679 23.7996 -3.56068 39.6949 4.66241 -9.39714 -8.78744 -2.70629 -56.4135 -22.428 -52.2578 12.3819 36.7822 -2.58423 26.0266 -2.0198 8.72026 6.3114 13.1497 -3.0102 0 0 0 109.758 -30.0097 111.239 -9.07514 -6.76699 -24.8673 43.6806 -4.45531 -10.294 0 0 0 -123.482 17.1433 -51.6384 12.5026 -16.4652 13.1809 -31.3395 -31.3269 35.2593 0 0 0 13.2674 30.7327 -29.1833 
10.2609 -38.9381 -41.4982 -101.003 -8.4201 -74.0434 29.893 -44.5214 22.9355 -3.84392 40.7666 4.99613 -9.1931 -9.10528 -1.38678 -53.88 -21.0811 -49.8094 12.5515 36.9101 -2.80438 25.906 -2.59486 8.74013 5.598 11.5261 -1.8441 0 0 0 108.474 -29.8445 108.103 -9.05294 -7.53584 -24.7733 44.7735 -4.80375 -9.31471 0 0 0 -121.169 15.7699 -48.6999 11.3602 -16.3967 12.0531 -29.9611 -30.383 33.7842 0 0 0 13.537 31.9948 -29.6898 
10.286 -38.9908 -41.453 -99.5754 -8.23756 -75.1119 29.1971 -40.7807 21.355 -4.3488 40.3593 5.50501 -9.01202 -9.26354 -0.339325 -51.1588 -19.0408 -46.8596 12.6337 36.4392 -3.09157 25.8685 -3.18573 8.70726 5.21628 10.3669 -1.0656 0 0 0 107.135 -29.6707 104.657 -9.52464 -8.3905 -24.7754 44.5618 -5.44076 -8.68714 0 0 0 -119.532 14.1922 -45.7584 10.4028 -16.0776 10.8514 -27.883 -29.3618 32.4218 0 0 0 13.5812 33.4048 -29.6802 
10.2986 -38.9305 -41.4932 -98.3602 -8.15225 -75.9178 27.9291 -36.7497 19.2195 -4.81647 38.8089 5.99977 -9.05992 -9.73645 0.414977 -48.544 -16.3634 -43.7415 12.6649 35.2006 -3.55389 25.8706 -3.68858 8.53832 4.90842 9.54943 -0.508851 0 0 0 105.771 -29.3258 101.116 -10.1217 -9.55479 -24.8334 44.3583 -6.21806 -7.98257 0 0 0 -117.762 12.426 -43.8403 9.81626 -15.8309 10.2303 -26.1984 -28.2856 31.5755 0 0 0 13.7093 34.8996 -29.6393 
10.271 -38.9858 -41.4706 -97.0416 -8.18276 -77.1843 26.2098 -32.4903 16.8201 -4.94963 36.1762 6.31351 -9.52774 -10.4277 0.946127 -45.9096 -13.0034 -40.0769 12.4107 32.5454 -4.0512 25.8211 -4.84474 8.38226 4.42603 8.83151 0.377577 0 0 0 103.973 -28.9505 95.9177 -10.85 -11.0459 -24.6957 44.3412 -6.71164 -6.41434 0 0 0 -116.915 11.7058 -41.5247 10.0083 -15.307 9.36599 -24.9045 -28.0036 31.0146 0 0 0 13.4997 36.1209 -29.5245 
10.2408 -38.9607 -41.5158 -95.6818 -8.26501 -78.2752 24.2766 -29.0117 13.7635 -4.83374 32.8018 6.49664 -9.58973 -10.9294 2.15236 -43.7367 -10.3419 -37.0943 11.8442 29.0615 -4.71434 26.4531 -5.28392 6.10665 4.03377 8.29272 1.09 0 0 0 102.177 -27.76 90.2762 -11.8016 -12.6588 -24.4505 44.3245 -6.44729 -3.8845 0 0 0 -115.781 10.2675 -40.3531 9.78932 -14.5394 9.08344 -23.6854 -28.0463 30.7945 0 0 0 13.1967 36.9902 -29.2609 
10.2383 -38.9858 -41.5032 -94.4699 -8.3009 -79.479 22.392 -25.8268 10.4463 -4.27094 28.9555 6.43991 -9.82283 -11.4032 3.35408 -42.2914 -7.73666 -34.0592 11.3685 25.4472 -6.00404 26.0419 -5.24443 4.40759 3.67346 8.05049 1.67713 0 0 0 100.335 -25.9805 84.5606 -12.8029 -14.3681 -24.1215 44.2074 -5.67282 -0.896591 0 0 0 -115.095 9.25235 -39.2584 10.2114 -13.9132 8.77117 -22.9787 -27.8482 30.5498 0 0 0 12.4672 37.8343 -28.8081 
